<svg width="22" height="20" viewBox="0 0 22 20" fill="none" xmlns="http://www.w3.org/2000/svg">
<path fill-rule="evenodd" clip-rule="evenodd" d="M1.5 4.61396V6.74826C1.50272 6.76192 1.5228 6.82485 1.64327 6.93506C1.80171 7.08 2.07324 7.2464 2.4748 7.40535C3.27288 7.72123 4.43277 7.94828 5.77456 7.99225C5.93104 7.99738 6.08963 8 6.25 8C6.66421 8 7 8.33579 7 8.75C7 9.16421 6.66421 9.5 6.25 9.5C6.07328 9.5 5.89832 9.49711 5.72543 9.49144C4.26398 9.44355 2.92387 9.19632 1.92276 8.80007C1.77744 8.74255 1.63597 8.6806 1.5 8.61396L1.5 10.7479C1.50276 10.7619 1.52511 10.8342 1.67116 10.9598C1.85598 11.1187 2.16731 11.2958 2.61722 11.4594C3.51088 11.7843 4.79516 12 6.25 12C6.66421 12 7 12.3358 7 12.75C7 13.1642 6.66421 13.5 6.25 13.5C4.66728 13.5 3.20156 13.268 2.10461 12.8691C1.89407 12.7925 1.69117 12.7077 1.5 12.614V14.7479C1.50276 14.7619 1.52511 14.8342 1.67116 14.9598C1.85598 15.1187 2.16731 15.2958 2.61722 15.4594C3.51088 15.7843 4.79516 16 6.25 16C6.66421 16 7 16.3358 7 16.75C7 17.1642 6.66421 17.5 6.25 17.5C4.66728 17.5 3.20156 17.268 2.10461 16.8691C1.55921 16.6707 1.06508 16.4169 0.693275 16.0972C0.323904 15.7796 0 15.327 0 14.75V2.75C0 2.17303 0.323904 1.72036 0.693275 1.4028C1.06508 1.08314 1.55921 0.829265 2.10461 0.630941C3.20156 0.23205 4.66728 0 6.25 0C7.83272 0 9.29844 0.23205 10.3954 0.630941C10.9408 0.829265 11.4349 1.08314 11.8067 1.4028C12.1761 1.72036 12.5 2.17303 12.5 2.75V4.25C12.5 4.66421 12.1642 5 11.75 5C11.4529 5 11.1961 4.8272 11.0747 4.5766C10.862 4.68525 10.6336 4.78245 10.3954 4.86906C9.29844 5.26795 7.83272 5.5 6.25 5.5C4.66728 5.5 3.20156 5.26795 2.10461 4.86906C1.89407 4.7925 1.69117 4.70766 1.5 4.61396ZM11.0001 2.74753C11.0001 2.74605 11.0003 2.74532 11.0003 2.74532L11.0001 2.74753ZM10.9995 2.75C10.9951 2.76825 10.9686 2.83965 10.8288 2.95978C10.644 3.11868 10.3327 3.29576 9.88278 3.45937C8.98912 3.78434 7.70484 4 6.25 4C4.79516 4 3.51088 3.78434 2.61722 3.45937C2.16731 3.29576 1.85598 3.11868 1.67116 2.95978C1.53143 2.83965 1.50493 2.76825 1.50048 2.75C1.50493 2.73175 1.53143 2.66035 1.67116 2.54022C1.85598 2.38132 2.16731 2.20424 2.61722 2.04063C3.51088 1.71566 4.79516 1.5 6.25 1.5C7.70484 1.5 8.98912 1.71566 9.88278 2.04063C10.3327 2.20424 10.644 2.38132 10.8288 2.54022C10.9686 2.66035 10.9951 2.73175 10.9995 2.75ZM1.49967 14.7453C1.49972 14.7453 1.49992 14.7464 1.5 14.7479L1.49967 14.7453ZM1.49967 2.74532C1.49972 2.74532 1.49986 2.74605 1.49994 2.74753L1.49967 2.74532ZM10.6712 9.04022C10.5314 9.16035 10.5049 9.23175 10.5005 9.25C10.5049 9.26825 10.5314 9.33964 10.6712 9.45978C10.856 9.61868 11.1673 9.79576 11.6172 9.95937C12.5109 10.2843 13.7952 10.5 15.25 10.5C16.7048 10.5 17.9891 10.2843 18.8828 9.95937C19.3327 9.79576 19.644 9.61868 19.8288 9.45978C19.9686 9.33965 19.9951 9.26825 19.9995 9.25C19.9951 9.23175 19.9686 9.16036 19.8288 9.04022C19.644 8.88132 19.3327 8.70424 18.8828 8.54063C17.9891 8.21566 16.7048 8 15.25 8C13.7952 8 12.5109 8.21566 11.6172 8.54063C11.1673 8.70424 10.856 8.88132 10.6712 9.04022ZM20 11.114C19.8088 11.2077 19.6059 11.2925 19.3954 11.3691C18.2984 11.7679 16.8327 12 15.25 12C13.6673 12 12.2016 11.7679 11.1046 11.3691C10.8941 11.2925 10.6912 11.2077 10.5 11.114L10.5 12.9979C10.5028 13.0119 10.5251 13.0842 10.6712 13.2098C10.856 13.3687 11.1673 13.5458 11.6172 13.7094C12.5109 14.0343 13.7952 14.25 15.25 14.25C16.7048 14.25 17.9891 14.0343 18.8828 13.7094C19.3327 13.5458 19.644 13.3687 19.8288 13.2098C19.9749 13.0842 19.9972 13.0119 20 12.9978V11.114ZM20 14.864C19.8088 14.9577 19.6059 15.0425 19.3954 15.1191C18.2984 15.518 16.8327 15.75 15.25 15.75C13.6673 15.75 12.2016 15.518 11.1046 15.1191C10.8941 15.0425 10.6912 14.9577 10.5 14.864V16.7478C10.5028 16.7619 10.5251 16.8342 10.6712 16.9598C10.856 17.1187 11.1673 17.2958 11.6172 17.4594C12.5109 17.7843 13.7952 18 15.25 18C16.7048 18 17.9891 17.7843 18.8828 17.4594C19.3327 17.2958 19.644 17.1187 19.8288 16.9598C19.9749 16.8342 19.9972 16.7619 20 16.7479V14.864ZM20.0003 16.7453C20.0004 16.7453 20.0003 16.7464 20 16.7479L20.0003 16.7453ZM10.4997 16.7453C10.4997 16.7453 10.4999 16.7464 10.5 16.7478L10.4997 16.7453ZM21.5 16.75C21.5 17.327 21.1761 17.7796 20.8067 18.0972C20.4349 18.4169 19.9408 18.6707 19.3954 18.8691C18.2984 19.268 16.8327 19.5 15.25 19.5C13.6673 19.5 12.2016 19.268 11.1046 18.8691C10.5592 18.6707 10.0651 18.4169 9.69328 18.0972C9.3239 17.7796 9 17.327 9 16.75V9.25C9 8.67303 9.3239 8.22036 9.69328 7.9028C10.0651 7.58314 10.5592 7.32927 11.1046 7.13094C12.2016 6.73205 13.6673 6.5 15.25 6.5C16.8327 6.5 18.2984 6.73205 19.3954 7.13094C19.9408 7.32927 20.4349 7.58314 20.8067 7.9028C21.1761 8.22036 21.5 8.67303 21.5 9.25V16.75ZM20.0001 9.24753C20.0001 9.24605 20.0003 9.24532 20.0003 9.24532L20.0001 9.24753ZM10.4997 9.24532C10.4997 9.24533 10.4999 9.24606 10.4999 9.24753L10.4997 9.24532Z" fill="white"/>
</svg>
