<svg width="24" height="25" viewBox="0 0 24 25" fill="none" xmlns="http://www.w3.org/2000/svg">
<path fill-rule="evenodd" clip-rule="evenodd" d="M8.7679 1.97559H15.2321C16.0449 1.97558 16.7006 1.97557 17.2315 2.01895C17.7781 2.06361 18.2582 2.15797 18.7025 2.38431C19.4081 2.74384 19.9818 3.31751 20.3413 4.02312C20.5676 4.46734 20.662 4.94748 20.7066 5.49412C20.75 6.02502 20.75 6.68063 20.75 7.49346V17.9577C20.75 18.7705 20.75 19.4261 20.7066 19.9571C20.662 20.5037 20.5676 20.9838 20.3413 21.428C19.9818 22.1337 19.4081 22.7073 18.7025 23.0669C18.2582 23.2932 17.7781 23.3876 17.2315 23.4322C16.7006 23.4756 16.045 23.4756 15.2321 23.4756H8.76788C7.95505 23.4756 7.29944 23.4756 6.76853 23.4322C6.2219 23.3876 5.74175 23.2932 5.29754 23.0669C4.59193 22.7073 4.01825 22.1337 3.65873 21.428C3.43239 20.9838 3.33803 20.5037 3.29336 19.9571C3.24999 19.4261 3.24999 18.7705 3.25 17.9577V7.49348C3.24999 6.68064 3.24999 6.02503 3.29336 5.49412C3.33803 4.94748 3.43239 4.46734 3.65873 4.02312C4.01825 3.31751 4.59193 2.74384 5.29754 2.38431C5.74175 2.15797 6.2219 2.06361 6.76853 2.01895C7.29944 1.97557 7.95506 1.97558 8.7679 1.97559ZM6.89068 3.51397C6.4368 3.55105 6.17604 3.62018 5.97852 3.72082C5.55516 3.93654 5.21095 4.28074 4.99524 4.70411C4.8946 4.90162 4.82547 5.16239 4.78838 5.61627C4.75058 6.0789 4.75 6.67313 4.75 7.52559V17.9256C4.75 18.778 4.75058 19.3723 4.78838 19.8349C4.82547 20.2888 4.8946 20.5495 4.99524 20.7471C5.21095 21.1704 5.55516 21.5146 5.97852 21.7304C6.17604 21.831 6.4368 21.9001 6.89068 21.9372C7.35331 21.975 7.94755 21.9756 8.8 21.9756H15.2C16.0525 21.9756 16.6467 21.975 17.1093 21.9372C17.5632 21.9001 17.824 21.831 18.0215 21.7304C18.4448 21.5146 18.789 21.1704 19.0048 20.7471C19.1054 20.5495 19.1745 20.2888 19.2116 19.8349C19.2494 19.3723 19.25 18.778 19.25 17.9256V7.52559C19.25 6.67313 19.2494 6.0789 19.2116 5.61627C19.1745 5.16239 19.1054 4.90162 19.0048 4.70411C18.789 4.28074 18.4448 3.93654 18.0215 3.72082C17.824 3.62018 17.5632 3.55105 17.1093 3.51397C16.6467 3.47617 16.0525 3.47559 15.2 3.47559H8.8C7.94755 3.47559 7.35331 3.47617 6.89068 3.51397ZM7.25 7.72559C7.25 7.31137 7.58579 6.97559 8 6.97559H14.5C14.9142 6.97559 15.25 7.31137 15.25 7.72559C15.25 8.1398 14.9142 8.47559 14.5 8.47559H8C7.58579 8.47559 7.25 8.1398 7.25 7.72559ZM7.25 11.7256C7.25 11.3114 7.58579 10.9756 8 10.9756H11.5C11.9142 10.9756 12.25 11.3114 12.25 11.7256C12.25 12.1398 11.9142 12.4756 11.5 12.4756H8C7.58579 12.4756 7.25 12.1398 7.25 11.7256ZM7.25 15.7256C7.25 15.3114 7.58579 14.9756 8 14.9756H15.5C15.9142 14.9756 16.25 15.3114 16.25 15.7256C16.25 16.1398 15.9142 16.4756 15.5 16.4756H8C7.58579 16.4756 7.25 16.1398 7.25 15.7256Z" fill="white"/>
</svg>
