<svg width="20" height="20" viewBox="0 0 20 20" fill="none" xmlns="http://www.w3.org/2000/svg">
<path fill-rule="evenodd" clip-rule="evenodd" d="M9.77184 1.50096C9.75731 1.49968 9.74269 1.49968 9.72816 1.50096C9.73023 1.50077 9.72529 1.50091 9.70042 1.50576C9.6716 1.51138 9.63395 1.51969 9.56561 1.53488L2.16561 3.17932C1.93144 3.23136 1.79517 3.26212 1.695 3.29223C1.63369 3.31066 1.60896 3.32246 1.60248 3.32594C1.56681 3.35201 1.53869 3.38707 1.52097 3.42755C1.51898 3.43463 1.51282 3.46133 1.50813 3.52518C1.50047 3.6295 1.5 3.7692 1.5 4.00908L1.5 5.12561C1.5 5.41801 1.50059 5.5922 1.51114 5.72133C1.51757 5.80014 1.52607 5.83327 1.52883 5.84214C1.55235 5.88678 1.58883 5.92326 1.63347 5.94678C1.64234 5.94954 1.67547 5.95803 1.75428 5.96447C1.88341 5.97502 2.0576 5.97561 2.35 5.97561H17.15C17.4424 5.97561 17.6166 5.97502 17.7457 5.96447C17.8245 5.95803 17.8577 5.94954 17.8665 5.94678C17.9112 5.92326 17.9477 5.88678 17.9712 5.84215C17.9739 5.83327 17.9824 5.80015 17.9889 5.72133C17.9994 5.5922 18 5.41801 18 5.12561V4.00908C18 3.7692 17.9995 3.6295 17.9919 3.52519C17.9872 3.46133 17.981 3.43463 17.979 3.42755C17.9613 3.38707 17.9332 3.35201 17.8975 3.32594C17.891 3.32246 17.8663 3.31066 17.805 3.29223C17.7048 3.26212 17.5686 3.23136 17.3344 3.17932L9.93439 1.53488C9.86606 1.51969 9.8284 1.51138 9.79958 1.50576C9.77471 1.50091 9.76977 1.50077 9.77184 1.50096ZM17.8994 3.32702C17.8993 3.32701 17.8984 3.32653 17.8975 3.32594L17.8994 3.32702ZM17.9784 3.42552C17.9784 3.42548 17.9787 3.42637 17.979 3.42755L17.9784 3.42552ZM17.8691 5.94588C17.8692 5.94589 17.8687 5.94608 17.8676 5.94643L17.8691 5.94588ZM17.5 7.47428C17.6328 7.47256 17.7565 7.46859 17.8679 7.45949C18.081 7.44208 18.3142 7.40221 18.5445 7.28487C18.8738 7.11709 19.1415 6.84937 19.3093 6.52009C19.4266 6.28978 19.4665 6.05661 19.4839 5.84348C19.5 5.6458 19.5 5.40932 19.5 5.15184V3.98654C19.5 3.77696 19.5 3.58129 19.4878 3.41531C19.4745 3.23396 19.4442 3.03785 19.358 2.83722C19.2327 2.54555 19.0305 2.29344 18.7729 2.10788C18.5958 1.98025 18.4109 1.90806 18.2368 1.85572C18.0774 1.80782 17.8864 1.76539 17.6818 1.71994L10.2598 0.0705968C10.2514 0.0687384 10.243 0.0668604 10.2346 0.0649714C10.1305 0.0417535 10.0192 0.0168868 9.90288 0.00668997C9.80116 -0.00222999 9.69885 -0.00222999 9.59713 0.00668997C9.48085 0.0168867 9.36946 0.0417534 9.26545 0.0649709C9.25699 0.06686 9.24858 0.0687382 9.24022 0.0705966L1.84022 1.71504C1.83286 1.71668 1.82551 1.71831 1.81819 1.71993C1.61361 1.76538 1.4226 1.80781 1.26322 1.85572C1.08908 1.90806 0.904231 1.98025 0.727066 2.10788C0.469511 2.29343 0.267275 2.54554 0.142014 2.83722C0.0558503 3.03785 0.0254802 3.23396 0.0121609 3.41531C-2.87369e-05 3.58128 -1.41936e-05 3.77694 1.42285e-06 3.98651L1.24404e-06 5.15182C-1.72334e-05 5.40931 -3.41609e-05 5.64579 0.0161174 5.84348C0.033531 6.05661 0.0733937 6.28978 0.190741 6.52009C0.358519 6.84937 0.626235 7.11709 0.955519 7.28487C1.18583 7.40221 1.419 7.44208 1.63213 7.45949C1.7435 7.46859 1.86719 7.47256 2 7.47428V13.9769C1.86719 13.9787 1.7435 13.9826 1.63213 13.9917C1.419 14.0091 1.18583 14.049 0.955519 14.1663C0.626236 14.3341 0.35852 14.6018 0.190741 14.9311C0.073394 15.1614 0.0335312 15.3946 0.0161176 15.6077C-3.41013e-05 15.8054 -1.71738e-05 16.0419 1.30364e-06 16.2994L1.24404e-06 17.1518C-1.72334e-05 17.4093 -3.41609e-05 17.6458 0.0161174 17.8435C0.033531 18.0566 0.0733937 18.2898 0.190741 18.5201C0.35852 18.8494 0.626236 19.1171 0.955519 19.2849C1.18583 19.4022 1.419 19.4421 1.63213 19.4595C1.82981 19.4756 2.06629 19.4756 2.32377 19.4756H17.1762C17.4337 19.4756 17.6702 19.4756 17.8679 19.4595C18.081 19.4421 18.3142 19.4022 18.5445 19.2849C18.8738 19.1171 19.1415 18.8494 19.3093 18.5201C19.4266 18.2898 19.4665 18.0566 19.4839 17.8435C19.5 17.6458 19.5 17.4093 19.5 17.1518V16.2994C19.5 16.0419 19.5 15.8054 19.4839 15.6077C19.4665 15.3946 19.4266 15.1614 19.3093 14.9311C19.1415 14.6018 18.8738 14.3341 18.5445 14.1663C18.3142 14.049 18.081 14.0091 17.8679 13.9917C17.7565 13.9826 17.6328 13.9787 17.5 13.9769V7.47428ZM16 7.47561H13V13.9756H16V7.47561ZM2.35 15.4756C2.0576 15.4756 1.88341 15.4762 1.75428 15.4867C1.67547 15.4932 1.64234 15.5017 1.63347 15.5044C1.58882 15.528 1.55235 15.5644 1.52883 15.6091C1.52607 15.618 1.51757 15.6511 1.51114 15.7299C1.50059 15.859 1.5 16.0332 1.5 16.3256L1.5 17.1256C1.5 17.418 1.50059 17.5922 1.51114 17.7213C1.51757 17.8001 1.52607 17.8333 1.52883 17.8421C1.55235 17.8868 1.58882 17.9233 1.63346 17.9468C1.64234 17.9495 1.67547 17.958 1.75428 17.9645C1.88341 17.975 2.0576 17.9756 2.35 17.9756H17.15C17.4424 17.9756 17.6166 17.975 17.7457 17.9645C17.8245 17.958 17.8577 17.9495 17.8665 17.9468C17.9112 17.9233 17.9477 17.8868 17.9712 17.8421C17.9739 17.8333 17.9824 17.8001 17.9889 17.7213C17.9994 17.5922 18 17.418 18 17.1256V16.3256C18 16.0332 17.9994 15.859 17.9889 15.7299C17.9824 15.6511 17.9739 15.618 17.9712 15.6091C17.9477 15.5644 17.9112 15.528 17.8665 15.5044C17.8577 15.5017 17.8245 15.4932 17.7457 15.4867C17.6166 15.4762 17.4424 15.4756 17.15 15.4756H2.35ZM17.9703 15.6065C17.9703 15.6064 17.9705 15.6069 17.9708 15.608L17.9703 15.6065ZM17.9703 17.8447C17.9702 17.8448 17.9704 17.8442 17.9708 17.8432L17.9703 17.8447ZM1.63088 17.9459C1.63091 17.9459 1.63143 17.946 1.63235 17.9464L1.63088 17.9459ZM1.52918 17.8432C1.52957 17.8442 1.52974 17.8447 1.52973 17.8447L1.52918 17.8432ZM1.52918 15.608C1.52953 15.6069 1.52972 15.6064 1.52973 15.6065L1.52918 15.608ZM1.63237 15.5048C1.63143 15.5052 1.63091 15.5053 1.63088 15.5053L1.63237 15.5048ZM3.5 13.9756H6.5V7.47561H3.5V13.9756ZM8 7.47561V13.9756H11.5V7.47561H8ZM1.63236 5.94643C1.63132 5.94608 1.63085 5.94589 1.63088 5.94588L1.63236 5.94643ZM1.52973 5.84473C1.52972 5.84476 1.52953 5.84429 1.52918 5.84325L1.52973 5.84473ZM1.52163 3.42552C1.52164 3.42556 1.52136 3.42652 1.52097 3.42755L1.52163 3.42552ZM1.60064 3.32702C1.6006 3.32702 1.6014 3.32653 1.60248 3.32594L1.60064 3.32702Z" fill="white"/>
</svg>
